<svg width="44" height="44" viewBox="0 0 44 44" fill="none" xmlns="http://www.w3.org/2000/svg" class="fill-current">
                  <path d="M36.4375 7.35627C32.1062 2.95627 26.0562 0.82502 19.9375 1.51252C10.3813 2.47502 2.81875 10.1063 1.7875 19.5938C1.375 23.9938 2.26875 28.2563 4.46875 31.9688L1.71875 39.1188C1.30625 40.0813 1.58125 41.25 2.40625 41.9375C2.8875 42.35 3.50625 42.625 4.125 42.625C4.5375 42.625 4.88125 42.5563 5.29375 42.35L11.55 39.1875C15.3312 41.4563 19.5937 42.4188 24.0625 42.0063C33.6875 41.1125 41.3875 33.4813 42.35 23.7875C42.9687 17.6688 40.8375 11.6875 36.4375 7.35627ZM39.2562 23.5125C38.4312 31.6938 31.9 38.1563 23.7187 38.9125C19.6625 39.325 15.8125 38.2938 12.4438 36.0938C12.1688 35.8875 11.8938 35.8188 11.6187 35.8188C11.4125 35.8188 11.1375 35.8875 10.9312 35.9563L5.0875 38.8438L7.63125 32.2438C7.8375 31.7625 7.76875 31.2813 7.49375 30.8688C5.3625 27.5688 4.46875 23.7188 4.88125 19.7313C5.70625 11.825 12.1688 5.43127 20.2125 4.60627C25.4375 4.05627 30.5937 5.84377 34.2375 9.55627C37.95 13.2 39.8062 18.2875 39.2562 23.5125Z" fill="white"></path>
                  <path d="M16.2937 16.4313H26.4687C27.2937 16.4313 28.05 15.7438 28.05 14.8501C28.05 13.9563 27.3625 13.2688 26.4687 13.2688H16.2937C15.4687 13.2688 14.7125 13.9563 14.7125 14.8501C14.7125 15.7438 15.4687 16.4313 16.2937 16.4313Z" fill="white"></path>
                  <path d="M30.525 20.4187H16.2937C15.4687 20.4187 14.7125 21.1062 14.7125 22C14.7125 22.8937 15.4 23.5125 16.2937 23.5125H30.525C31.35 23.5125 32.1062 22.825 32.1062 22C32.1062 21.175 31.35 20.4187 30.525 20.4187Z" fill="white"></path>
                  <path d="M23.4437 27.5688H16.2937C15.4687 27.5688 14.7125 28.2563 14.7125 29.1501C14.7125 30.0438 15.4 30.7313 16.2937 30.7313H23.375C24.2 30.7313 24.9562 30.0438 24.9562 29.1501C24.9562 28.2563 24.2687 27.5688 23.4437 27.5688Z" fill="white"></path>
                </svg>