<svg width="44" height="44" viewBox="0 0 44 44" fill="none" xmlns="http://www.w3.org/2000/svg" class="fill-current">
                  <path d="M37.7437 6.46255H37.5375V5.50005C37.5375 3.16255 35.6125 1.23755 33.275 1.23755H14.2312C11.8937 1.23755 9.96874 3.16255 9.96874 5.50005V6.46255H7.56249C5.98124 6.46255 4.67499 7.7688 4.67499 9.35005V18.9751C4.67499 20.5563 5.98124 21.8626 7.56249 21.8626H25.7125V24.0626C23.7187 24.4063 22.2062 26.1938 22.2062 28.2563V38.5001C22.2062 40.8376 24.1312 42.7626 26.4687 42.7626H27.9812C30.3187 42.7626 32.2437 40.8376 32.2437 38.5001V28.2563C32.2437 26.1938 30.7312 24.4063 28.7375 24.0626V21.5876C28.7375 20.0063 27.4312 18.7001 25.85 18.7001H7.76874V9.5563H9.89999V10.5188C9.89999 12.8563 11.825 14.7813 14.1625 14.7813H33.1375C35.475 14.7813 37.4 12.8563 37.4 10.5188V9.5563H37.6062C38.4312 9.5563 39.1187 8.8688 39.1187 8.0438C39.1187 7.2188 38.6375 6.46255 37.7437 6.46255ZM29.2187 28.2563V38.5001C29.2187 39.1876 28.6687 39.7376 27.9812 39.7376H26.4687C25.7812 39.7376 25.2312 39.1876 25.2312 38.5001V28.2563C25.2312 27.5688 25.7812 27.0188 26.4687 27.0188H27.9812C28.6687 27.0188 29.2187 27.5688 29.2187 28.2563ZM34.4437 10.5188C34.4437 11.2063 33.8937 11.7563 33.2062 11.7563H14.2312C13.5437 11.7563 12.9937 11.2063 12.9937 10.5188V5.50005C12.9937 4.81255 13.5437 4.26255 14.2312 4.26255H33.2062C33.8937 4.26255 34.4437 4.81255 34.4437 5.50005V10.5188V10.5188Z" fill="white"></path>
                </svg>