<svg width="44" height="44" viewBox="0 0 44 44" fill="none" xmlns="http://www.w3.org/2000/svg" class="fill-current">
                  <path d="M14.9188 2.3374H6.1875C3.85 2.3374 1.925 4.2624 1.925 6.5999V15.3312C1.925 17.6687 3.85 19.5937 6.1875 19.5937H14.9188C17.2563 19.5937 19.1813 17.6687 19.1813 15.3312V6.66865C19.25 4.2624 17.325 2.3374 14.9188 2.3374ZM16.1563 15.3999C16.1563 16.0874 15.6063 16.6374 14.9188 16.6374H6.1875C5.5 16.6374 4.95 16.0874 4.95 15.3999V6.66865C4.95 5.98115 5.5 5.43115 6.1875 5.43115H14.9188C15.6063 5.43115 16.1563 5.98115 16.1563 6.66865V15.3999Z" fill="white"></path>
                  <path d="M37.8125 2.3374H29.0813C26.7438 2.3374 24.8188 4.2624 24.8188 6.5999V15.3312C24.8188 17.6687 26.7438 19.5937 29.0813 19.5937H37.8125C40.15 19.5937 42.075 17.6687 42.075 15.3312V6.66865C42.075 4.2624 40.15 2.3374 37.8125 2.3374ZM39.05 15.3999C39.05 16.0874 38.5 16.6374 37.8125 16.6374H29.0813C28.3938 16.6374 27.8438 16.0874 27.8438 15.3999V6.66865C27.8438 5.98115 28.3938 5.43115 29.0813 5.43115H37.8125C38.5 5.43115 39.05 5.98115 39.05 6.66865V15.3999Z" fill="white"></path>
                  <path d="M14.9188 24.2686H6.1875C3.85 24.2686 1.925 26.1936 1.925 28.5311V37.2623C1.925 39.5998 3.85 41.5248 6.1875 41.5248H14.9188C17.2563 41.5248 19.1813 39.5998 19.1813 37.2623V28.5998C19.25 26.1936 17.325 24.2686 14.9188 24.2686ZM16.1563 37.3311C16.1563 38.0186 15.6063 38.5686 14.9188 38.5686H6.1875C5.5 38.5686 4.95 38.0186 4.95 37.3311V28.5998C4.95 27.9123 5.5 27.3623 6.1875 27.3623H14.9188C15.6063 27.3623 16.1563 27.9123 16.1563 28.5998V37.3311Z" fill="white"></path>
                  <path d="M37.8125 24.2686H29.0813C26.7438 24.2686 24.8188 26.1936 24.8188 28.5311V37.2623C24.8188 39.5998 26.7438 41.5248 29.0813 41.5248H37.8125C40.15 41.5248 42.075 39.5998 42.075 37.2623V28.5998C42.075 26.1936 40.15 24.2686 37.8125 24.2686ZM39.05 37.3311C39.05 38.0186 38.5 38.5686 37.8125 38.5686H29.0813C28.3938 38.5686 27.8438 38.0186 27.8438 37.3311V28.5998C27.8438 27.9123 28.3938 27.3623 29.0813 27.3623H37.8125C38.5 27.3623 39.05 27.9123 39.05 28.5998V37.3311Z" fill="white"></path>
                </svg>