<svg width="32" height="32" viewBox="0 0 32 32" fill="none" xmlns="http://www.w3.org/2000/svg">
                      <path d="M28 4.7998H4.00001C2.30001 4.7998 0.850006 6.1998 0.850006 7.9498V24.1498C0.850006 25.8498 2.25001 27.2998 4.00001 27.2998H28C29.7 27.2998 31.15 25.8998 31.15 24.1498V7.8998C31.15 6.1998 29.7 4.7998 28 4.7998ZM28 7.0498C28.05 7.0498 28.1 7.0498 28.15 7.0498L16 14.8498L3.85001 7.0498C3.90001 7.0498 3.95001 7.0498 4.00001 7.0498H28ZM28 24.9498H4.00001C3.50001 24.9498 3.10001 24.5498 3.10001 24.0498V9.2498L14.8 16.7498C15.15 16.9998 15.55 17.0998 15.95 17.0998C16.35 17.0998 16.75 16.9998 17.1 16.7498L28.8 9.2498V24.0998C28.9 24.5998 28.5 24.9498 28 24.9498Z" fill="white"></path>
                    </svg>